<mxfile host="app.diagrams.net" modified="2024-03-08T14:18:41.600Z" agent="Mozilla/5.0 (Macintosh; Intel Mac OS X 10_15_7) AppleWebKit/605.1.15 (KHTML, like Gecko) Version/17.2.1 Safari/605.1.15" version="24.0.2" etag="9_xsFWe_Q-6tdp_S_2DM" type="github">
  <diagram name="Page-1" id="4AKVum7g2aCIMYz--MYV">
    <mxGraphModel>
      <root>
        <mxCell id="0" />
        <mxCell id="1" parent="0" />
      </root>
    </mxGraphModel>
  </diagram>
</mxfile>
